<svg width="8" height="16" viewBox="0 0 8 16" xmlns="http://www.w3.org/2000/svg">
<path d="M2.239 8.90747C2.10993 8.90747 2.00296 8.90747 1.89599 8.90747C1.40261 8.90731 0.909228 8.91102 0.416009 8.9057C0.121401 8.90247 0.0234671 8.81648 0.0207243 8.53494C0.013464 7.77696 0.0133028 7.01882 0.0210471 6.26084C0.0239513 5.98011 0.127532 5.89363 0.418429 5.89218C0.95392 5.88944 1.48941 5.89137 2.0249 5.89137C2.0896 5.89137 2.15413 5.89137 2.23916 5.89137C2.23916 5.80296 2.23803 5.73261 2.23932 5.66227C2.25191 4.97705 2.2269 4.28845 2.28514 3.60711C2.43132 1.89141 3.74915 0.649894 5.47243 0.584874C6.19346 0.557607 6.91611 0.573741 7.63811 0.575516C7.87754 0.576162 7.98047 0.679097 7.98176 0.918527C7.98564 1.6344 7.9858 2.35043 7.98176 3.06629C7.98031 3.31008 7.88044 3.40705 7.61988 3.4135C7.13279 3.42544 6.64538 3.42576 6.15813 3.43302C5.59231 3.44141 5.36933 3.65487 5.35917 4.22085C5.34965 4.75521 5.35707 5.28989 5.35707 5.84378C5.43242 5.84733 5.49566 5.85297 5.55891 5.85297C6.17862 5.85362 6.79833 5.85281 7.41804 5.85362C7.82204 5.8541 7.91029 5.94106 7.91061 6.33716C7.91126 7.04705 7.91174 7.75712 7.91029 8.46701C7.90965 8.79954 7.82736 8.8836 7.49419 8.88505C6.85641 8.88763 6.21863 8.88602 5.58101 8.88618C5.51551 8.88618 5.45017 8.88618 5.35788 8.88618C5.35788 8.97492 5.35788 9.05091 5.35788 9.1269C5.35788 11.0101 5.35804 12.8932 5.35788 14.7764C5.35788 15.2832 5.29867 15.3413 4.78528 15.3414C4.09345 15.3416 3.40146 15.3421 2.70963 15.3413C2.32741 15.3408 2.23932 15.254 2.23932 14.8766C2.23868 12.9691 2.239 11.0619 2.239 9.15465C2.239 9.08318 2.239 9.0117 2.239 8.90747Z"/>
</svg>
