<svg width="71" height="72" viewBox="0 0 71 72" fill="none" xmlns="http://www.w3.org/2000/svg">
<path d="M68.5991 53.2391C65.8453 53.2391 63.1863 53.2391 60.4715 53.2391C60.4715 57.5671 60.4715 61.8789 60.4715 66.2311C63.1547 66.2311 65.8127 66.2311 68.6002 66.2311C68.6002 65.7761 68.6013 65.3221 68.6 64.868C68.5983 64.3162 68.7607 63.8617 69.402 63.86C70.0305 63.8585 70.2212 64.2819 70.2193 64.85C70.2131 66.6281 70.2234 68.4063 70.2138 70.1846C70.2101 70.8928 69.9429 71.15 69.2439 71.175C69.057 71.1817 68.8697 71.1766 68.6825 71.1766C52.2836 71.1766 35.8845 71.1768 19.4855 71.1759C19.205 71.1759 18.8683 71.2603 18.6579 71.136C18.3785 70.971 18.0275 70.6421 18.0226 70.3779C18.018 70.1178 18.3611 69.7691 18.638 69.612C18.8724 69.479 19.2307 69.555 19.5341 69.5548C35.5588 69.5533 51.5835 69.5535 67.6082 69.5535C67.9063 69.5535 68.2042 69.5535 68.5501 69.5535C68.5501 68.9771 68.5501 68.4783 68.5501 67.9522C46.2436 67.9522 23.979 67.9522 1.66646 67.9522C1.66646 68.4708 1.66646 68.97 1.66646 69.5535C1.9824 69.5535 2.25633 69.5535 2.53008 69.5535C6.10927 69.5535 9.68865 69.5527 13.2678 69.555C13.5245 69.5551 13.8436 69.4863 14.0229 69.6101C14.2925 69.7961 14.6377 70.1298 14.6289 70.3899C14.6199 70.6539 14.2413 70.9293 13.9816 71.1487C13.8838 71.2314 13.6651 71.1755 13.5015 71.1757C9.40759 71.1765 5.31371 71.1776 1.21983 71.1755C0.193647 71.175 0.000897099 70.9788 0.000897099 69.9401C-0.000227901 61.5172 -4.04008e-05 53.0941 0.000897099 44.6713C0.0010846 43.6183 0.216897 43.4006 1.27196 43.3978C2.83309 43.3936 4.39402 43.3966 6.13946 43.3966C4.60871 41.6896 4.92634 39.728 4.90421 37.8314C4.89671 37.1943 5.21471 36.8812 5.85015 36.887C5.94371 36.8879 6.03971 36.8722 6.13046 36.8881C7.92934 37.2016 9.35433 36.6189 10.4028 35.1191C10.4688 35.0248 10.5648 34.9509 10.649 34.8697C11.1553 34.3814 11.6433 34.3049 11.988 34.6948C12.4361 35.2019 12.2195 35.6458 11.7885 36.0288C11.5335 36.2555 11.2526 36.4531 10.9833 36.6639C11.0343 36.7379 11.0851 36.812 11.1361 36.8861C11.9679 36.8861 12.7996 36.8791 13.6312 36.8881C14.4277 36.8966 14.6803 37.1392 14.6915 37.94C14.703 38.7584 14.7911 39.5973 14.6465 40.3908C14.4633 41.3969 14.0793 42.3667 13.7821 43.3516C16.8073 43.3516 19.9927 43.3516 23.0767 43.3516C22.9785 42.2915 22.8826 41.2573 22.7825 40.1767C22.1874 40.0612 21.2176 40.3477 21.2533 39.2829C21.2851 38.3319 22.1793 38.5781 22.7561 38.4663C22.7988 38.4044 22.845 38.3684 22.8481 38.3287C22.9653 36.8859 22.9648 36.8857 24.4411 36.8857C26.7337 36.8857 29.0263 36.8849 31.3188 36.8861C32.4703 36.8866 32.5997 37.0102 32.6679 38.1515C32.6733 38.2415 32.6949 38.3304 32.7148 38.4568C33.3367 38.6004 34.316 38.3051 34.2521 39.3974C34.1981 40.3203 33.368 40.0873 32.7603 40.1647C32.6521 41.2226 32.5447 42.2739 32.4339 43.3569C34.0846 43.3569 35.8273 43.3569 37.5536 43.3569C37.5536 42.3616 37.5437 41.3894 37.5566 40.4174C37.5675 39.5951 37.839 39.3198 38.6596 39.3183C42.2857 39.3118 45.9118 39.3123 49.5377 39.3181C50.237 39.3193 50.6364 39.632 50.6013 40.1527C50.5565 40.8181 50.1011 40.9796 49.5198 40.9713C48.8235 40.9614 48.1269 40.9691 47.3469 40.9691C47.3469 41.4251 47.3469 41.8156 47.3469 42.206C47.3469 42.5746 47.3469 42.9433 47.3469 43.3544C53.5578 43.3544 59.7947 43.3544 66.0858 43.3544C66.1023 43.1855 66.1346 43.0074 66.1348 42.8291C66.1383 40.6766 66.129 38.5239 66.1425 36.3716C66.146 35.792 66.0174 35.3283 65.3626 35.2516C64.8384 35.1901 64.52 35.627 64.5054 36.3695C64.4966 36.8139 64.5127 37.2592 64.4887 37.7024C64.4621 38.1991 64.1816 38.492 63.6804 38.483C63.1833 38.474 62.9043 38.1806 62.8935 37.6807C62.8801 37.0728 62.8665 36.4627 62.9004 35.8563C62.9658 34.6893 63.8934 33.7535 65.0557 33.6406C66.2782 33.5221 67.3713 34.2427 67.6689 35.3968C67.7552 35.7316 67.7814 36.0896 67.7831 36.4372C67.7934 38.4727 67.7882 40.5082 67.7882 42.5439C67.7882 42.7964 67.7882 43.049 67.7882 43.3966C68.2813 43.3966 68.7176 43.3861 69.1532 43.3989C69.9442 43.4221 70.2137 43.682 70.2142 44.4577C70.2187 50.0263 70.2148 55.5946 70.2193 61.1632C70.2197 61.7274 70.0468 62.1618 69.4188 62.172C68.7825 62.1821 68.5998 61.7377 68.5998 61.1803C68.5995 58.8172 68.5989 56.4541 68.5985 54.0909C68.5991 53.8183 68.5991 53.5445 68.5991 53.2391ZM48.9635 45.1021C39.6954 45.1021 30.4732 45.1021 21.2542 45.1021C21.2542 52.1686 21.2542 59.1795 21.2542 66.2306C22.3269 66.2306 23.3645 66.2306 24.4809 66.2306C24.4809 65.9216 24.4809 65.6471 24.4809 65.3726C24.4809 61.1846 24.4792 56.9968 24.4824 52.8088C24.4831 51.8452 24.707 51.5881 25.5967 51.5874C31.9361 51.5814 38.2757 51.5816 44.615 51.5872C45.4839 51.588 45.7299 51.8482 45.734 52.734C45.7419 54.4185 45.7366 56.103 45.7357 57.7875C45.7357 57.9043 45.7387 58.0228 45.7215 58.1377C45.65 58.6145 45.3845 58.9327 44.8907 58.919C44.4045 58.9055 44.1272 58.5965 44.0992 58.1049C44.0807 57.7783 44.0926 57.45 44.0926 57.1224C44.0923 55.842 44.0925 54.5615 44.0925 53.2545C38.0718 53.2545 32.1236 53.2545 26.1624 53.2545C26.1624 56.5198 26.1624 59.7373 26.1624 62.9709C32.1493 62.9709 38.0987 62.9709 44.1002 62.9709C44.1002 62.3913 44.0085 61.8335 44.1352 61.3306C44.2091 61.0376 44.6126 60.6742 44.9047 60.6375C45.1412 60.6076 45.4929 60.9776 45.6793 61.2487C45.8028 61.4285 45.7344 61.7469 45.7351 62.0034C45.7385 63.4003 45.7368 64.7971 45.7368 66.2306C46.8532 66.2306 47.8908 66.2306 48.9635 66.2306C48.9635 59.1796 48.9635 52.1688 48.9635 45.1021ZM19.5483 66.2293C19.5483 62.9683 19.5483 59.7708 19.5483 56.5389C13.5654 56.5389 7.62034 56.5389 1.65671 56.5389C1.65671 59.7948 1.65671 62.9911 1.65671 66.2293C7.62352 66.2293 13.5525 66.2293 19.5483 66.2293ZM19.527 54.8175C19.527 51.5488 19.527 48.3191 19.527 45.0911C13.5399 45.0911 7.6119 45.0911 1.66421 45.0911C1.66421 48.3528 1.66421 51.5698 1.66421 54.8175C7.63834 54.8175 13.5665 54.8175 19.527 54.8175ZM68.5425 51.5523C68.5425 49.3501 68.5425 47.2173 68.5425 45.086C62.5571 45.086 56.6287 45.086 50.6921 45.086C50.6921 47.258 50.6921 49.3899 50.6921 51.5523C56.6595 51.5523 62.5665 51.5523 68.5425 51.5523ZM58.7411 66.2711C58.7411 61.854 58.7411 57.5484 58.7411 53.2498C56.0216 53.2498 53.3662 53.2498 50.6846 53.2498C50.6846 57.5992 50.6846 61.9055 50.6846 66.2711C51.1065 66.2711 51.476 66.2711 51.8456 66.2711C54.1325 66.2711 56.4195 66.2711 58.7411 66.2711ZM31.0239 38.5625C28.8133 38.5625 26.6806 38.5625 24.5117 38.5625C24.5117 39.7299 24.4597 40.8479 24.5283 41.9585C24.5814 42.8159 25.2142 43.361 26.0666 43.3831C27.186 43.4122 28.307 43.4126 29.4264 43.385C30.332 43.3627 30.9772 42.7509 31.0136 41.8462C31.0569 40.7758 31.0239 39.7021 31.0239 38.5625ZM6.57052 38.5563C6.57052 39.2718 6.50002 39.9502 6.58459 40.6087C6.7884 42.1964 8.06059 43.3271 9.61609 43.3904C11.2725 43.4578 12.65 42.4378 12.9609 40.8125C13.0985 40.0927 13.0537 39.338 13.0938 38.5565C10.8648 38.5563 8.72977 38.5563 6.57052 38.5563ZM44.0718 64.722C38.0585 64.722 32.1116 64.722 26.1688 64.722C26.1688 65.2584 26.1688 65.7382 26.1688 66.2165C32.16 66.2165 38.1073 66.2165 44.0718 66.2165C44.0718 65.7 44.0718 65.2378 44.0718 64.722ZM39.1869 41.0013C39.1869 41.4918 39.1794 41.9304 39.1886 42.3686C39.2041 43.1158 39.4607 43.3856 40.197 43.3933C41.3405 43.4051 42.4845 43.3933 43.628 43.3978C45.6161 43.4054 45.836 43.6638 45.7141 41.1506C45.7121 41.1101 45.6718 41.0713 45.632 41.0013C43.5309 41.0013 41.4131 41.0013 39.1869 41.0013Z" fill="#4A8780"/>
<path d="M35.0934 29.5241C30.9082 29.5241 26.7229 29.5254 22.5377 29.5234C21.4183 29.5228 21.2216 29.325 21.2196 28.2264C21.2182 27.4314 21.2451 26.6351 21.2104 25.8416C21.1867 25.2982 21.3876 24.9199 21.7888 24.5677C23.8798 22.7325 25.946 20.8689 28.0406 19.0378C28.4267 18.7003 28.5834 18.3562 28.5815 17.8384C28.5624 12.6705 28.5694 7.50242 28.5705 2.33436C28.5707 1.11017 28.7317 0.947044 29.9306 0.946669C33.4378 0.945919 36.945 0.944794 40.4522 0.947606C41.427 0.948356 41.6452 1.16304 41.6458 2.14986C41.6495 7.36461 41.6552 12.5795 41.6368 17.7943C41.6349 18.332 41.7898 18.6995 42.1972 19.0549C44.2241 20.8213 46.2138 22.6305 48.2437 24.3934C48.7816 24.8606 49.0696 25.349 49.0113 26.0825C48.9523 26.8262 49.001 27.5782 48.9975 28.3264C48.993 29.2832 48.7614 29.5213 47.789 29.5224C43.5573 29.5265 39.3255 29.5241 35.0934 29.5241ZM45.821 24.6285C45.8443 24.5692 45.8677 24.5098 45.891 24.4505C45.7621 24.3534 45.626 24.2645 45.5058 24.1579C43.8797 22.7139 42.2687 21.2522 40.6224 19.8315C40.1694 19.4407 40.0027 19.0256 40.0048 18.4385C40.0224 13.4334 40.0149 8.42811 40.0149 3.42279C40.0149 3.16911 40.0149 2.91542 40.0149 2.61786C36.7235 2.61786 33.4869 2.61786 30.2029 2.61786C30.2029 2.92104 30.2029 3.17623 30.2029 3.43123C30.2029 7.75817 30.0823 12.09 30.2548 16.4102C30.3384 18.5049 29.8177 19.9935 28.0835 21.2124C26.7418 22.1555 25.5979 23.3797 24.2467 24.5854C24.6339 24.6052 24.858 24.6262 25.082 24.6268C26.4384 24.6302 27.7948 24.6208 29.1512 24.6328C29.856 24.6392 30.2417 24.9555 30.1903 25.4809C30.1295 26.1043 29.7015 26.2575 29.145 26.2545C27.4145 26.2451 25.6839 26.2513 23.9533 26.2513C23.6107 26.2513 23.2684 26.2513 22.9228 26.2513C22.9228 26.8464 22.9228 27.3467 22.9228 27.8565C31.0783 27.8565 39.1807 27.8565 47.2981 27.8565C47.2981 27.3116 47.2981 26.8115 47.2981 26.2513C46.997 26.2513 46.7445 26.2513 46.4921 26.2513C42.3294 26.2513 38.1667 26.2517 34.004 26.2504C33.7706 26.2504 33.4682 26.3254 33.3187 26.2097C33.057 26.0068 32.7446 25.6916 32.7272 25.4066C32.7127 25.1724 33.0555 24.851 33.3148 24.6868C33.5034 24.5674 33.8145 24.6302 34.0708 24.63C37.7424 24.6275 41.4138 24.6283 45.0855 24.6283C45.3307 24.6285 45.576 24.6285 45.821 24.6285Z" fill="#4A8780"/>
<path d="M12.2494 0.94638C15.8979 0.94638 19.5465 0.94563 23.195 0.946942C24.2983 0.947317 24.4796 1.11925 24.48 2.18763C24.482 7.89513 24.482 13.6026 24.4798 19.3101C24.4794 20.3478 24.2912 20.5375 23.2459 20.5379C15.902 20.5405 8.55823 20.5407 1.21423 20.5377C0.188415 20.5373 0.00110291 20.3376 0.000915411 19.2901C-0.000209589 13.5826 -0.000397089 7.87507 0.000915411 2.16757C0.00110291 1.14063 0.195916 0.947692 1.23354 0.94713C4.90554 0.945255 8.57754 0.94638 12.2494 0.94638ZM22.8388 18.8772C22.8388 13.4146 22.8388 8.04232 22.8388 2.62019C19.5746 2.62019 16.3419 2.62019 13.1045 2.62019C13.1045 8.06313 13.1045 13.4549 13.1045 18.8772C16.3586 18.8772 19.572 18.8772 22.8388 18.8772ZM11.3852 2.63163C8.09229 2.63163 4.8806 2.63163 1.6736 2.63163C1.6736 8.08694 1.6736 13.4798 1.6736 18.8588C4.94285 18.8588 8.1566 18.8588 11.3852 18.8588C11.3852 13.4249 11.3852 8.0485 11.3852 2.63163Z" fill="#4A8780"/>
<path d="M57.9584 0.946349C61.6304 0.946349 65.3023 0.945224 68.9743 0.946911C70.0207 0.947474 70.2164 1.1376 70.2168 2.15854C70.2183 7.88947 70.2185 13.6202 70.2166 19.3512C70.2163 20.3269 70.0083 20.5369 69.0114 20.5373C61.6441 20.5405 54.2769 20.5405 46.9096 20.5367C45.9502 20.5362 45.7396 20.3275 45.7391 19.389C45.7357 13.6114 45.7353 7.83378 45.7395 2.05597C45.74 1.16441 45.9656 0.948599 46.8727 0.947661C50.5678 0.944474 54.263 0.946349 57.9584 0.946349ZM47.3883 2.6181C47.3883 8.05616 47.3883 13.4453 47.3883 18.8593C50.6593 18.8593 53.8893 18.8593 57.1066 18.8593C57.1066 13.4125 57.1066 8.02241 57.1066 2.6181C53.8441 2.6181 50.6293 2.6181 47.3883 2.6181ZM58.8461 2.61454C58.8461 8.05335 58.8461 13.447 58.8461 18.8713C62.0988 18.8713 65.3103 18.8713 68.5535 18.8713C68.5535 13.4355 68.5535 8.04491 68.5535 2.61454C65.2934 2.61454 62.0793 2.61454 58.8461 2.61454Z" fill="#4A8780"/>
<path d="M62.8717 59.7309C62.8717 60.0345 62.9748 60.3954 62.8458 60.6272C62.68 60.9249 62.3274 61.3059 62.0564 61.305C61.7857 61.304 61.3469 60.914 61.2828 60.6272C61.1585 60.0709 61.1587 59.4487 61.2793 58.8909C61.3436 58.5933 61.7315 58.2245 62.0356 58.1531C62.5002 58.0438 62.8072 58.4133 62.8691 58.8905C62.9049 59.1662 62.8756 59.4504 62.8756 59.7307C62.8743 59.7309 62.873 59.7309 62.8717 59.7309Z" fill="#4A8780"/>
<path d="M35.1043 54.8565C36.6461 54.8565 38.1881 54.8666 39.7299 54.8512C40.3187 54.8454 40.803 55.007 40.8079 55.6588C40.8128 56.3141 40.3189 56.4819 39.7378 56.481C36.654 56.4763 33.5702 56.4763 30.4866 56.481C29.9085 56.4819 29.4478 56.3259 29.3994 55.6659C29.3621 55.1563 29.7729 54.8608 30.4789 54.8582C32.0205 54.8527 33.5625 54.8567 35.1043 54.8565Z" fill="#4A8780"/>
<path d="M41.6721 45.8788C43.0222 45.8917 44.1052 46.9978 44.088 48.3455C44.0709 49.6813 42.9409 50.7868 41.6094 50.7703C40.2808 50.7538 39.1669 49.6089 39.1911 48.2846C39.2158 46.9335 40.3168 45.8657 41.6721 45.8788ZM40.8006 48.459C40.9952 48.6268 41.2427 48.9949 41.5663 49.0828C42.0279 49.2082 42.3718 48.8945 42.4224 48.3949C42.4731 47.8967 42.2186 47.5777 41.7212 47.5277C41.2284 47.478 40.9318 47.7356 40.8006 48.459Z" fill="#4A8780"/>
<path d="M26.1273 48.3153C26.1326 46.9615 27.2208 45.878 28.5744 45.8789C29.927 45.8798 31.0263 46.9722 31.0254 48.3149C31.0245 49.6458 29.9079 50.7642 28.5733 50.771C27.2486 50.7775 26.1223 49.6467 26.1273 48.3153ZM28.5318 47.5072C28.0751 47.5769 27.7653 47.8171 27.7871 48.3314C27.8081 48.83 28.1013 49.1195 28.595 49.1063C29.0866 49.0932 29.3698 48.7942 29.3623 48.2928C29.3544 47.7807 29.0358 47.5525 28.5318 47.5072Z" fill="#4A8780"/>
<path d="M37.5399 48.2933C37.5504 49.6504 36.462 50.7595 35.1101 50.7689C33.801 50.7781 32.6949 49.6889 32.6739 48.37C32.6518 46.9891 33.7061 45.8929 35.07 45.8791C36.4507 45.8646 37.5292 46.9189 37.5399 48.2933ZM35.2633 47.3989C35.1562 47.3991 35.0492 47.3995 34.9421 47.3997C34.7263 47.6999 34.3796 47.9789 34.3262 48.3057C34.2525 48.7561 34.5838 49.0947 35.0766 49.1089C35.6046 49.1243 35.9584 48.7889 35.8879 48.3001C35.841 47.9762 35.4823 47.6976 35.2633 47.3989Z" fill="#4A8780"/>
<path d="M10.5834 62.187C10.0477 62.1861 9.51149 62.1992 8.97637 62.1821C8.48099 62.1664 8.1825 61.8799 8.17331 61.3945C8.16393 60.9036 8.46543 60.5995 8.95537 60.5892C10.0494 60.5659 11.1446 60.5668 12.2389 60.585C12.7266 60.5931 13.0451 60.886 13.0434 61.3733C13.0417 61.8913 12.7196 62.178 12.1909 62.1861C11.6552 62.1945 11.1193 62.1881 10.5834 62.187Z" fill="#4A8780"/>
<path d="M10.5832 49.1261C11.1198 49.1261 11.6572 49.1099 12.1929 49.1308C12.7076 49.1508 13.0438 49.4298 13.0439 49.9565C13.0441 50.4507 12.7134 50.7457 12.2407 50.7582C11.1451 50.7875 10.0473 50.7899 8.95214 50.7545C8.48152 50.7393 8.16258 50.4365 8.17195 49.9353C8.18133 49.4398 8.49295 49.1623 8.9737 49.1356C9.50864 49.106 10.0466 49.1289 10.5832 49.1289C10.5832 49.1279 10.5832 49.127 10.5832 49.1261Z" fill="#4A8780"/>
<path d="M59.619 49.1201C59.3389 49.1191 59.0574 49.1362 58.779 49.1152C58.2878 49.0785 57.9994 48.8021 57.9956 48.3061C57.9921 47.8389 58.2737 47.5511 58.7248 47.5205C59.3055 47.481 59.8928 47.4785 60.4732 47.5173C60.9572 47.5498 61.2493 47.8516 61.2199 48.3555C61.1908 48.8533 60.8784 49.0998 60.3894 49.1191C60.1329 49.1295 59.8757 49.1212 59.619 49.1201Z" fill="#4A8780"/>
<path d="M57.981 59.7377C57.9812 59.9713 57.9868 60.2052 57.9801 60.4388C57.9647 60.9791 57.7346 61.3504 57.1495 61.3523C56.5969 61.354 56.3635 60.9908 56.3395 60.4896C56.3158 60 56.3213 59.508 56.3383 59.0179C56.3562 58.5109 56.6042 58.1402 57.1348 58.131C57.7003 58.1213 57.9626 58.4897 57.9793 59.0369C57.9866 59.2701 57.9808 59.5039 57.981 59.7377Z" fill="#4A8780"/>
<path d="M15.4847 10.7897C15.484 11.0695 15.5072 11.3515 15.4787 11.6282C15.4313 12.0882 15.1557 12.3494 14.6907 12.3488C14.2272 12.3482 13.9313 12.0902 13.9045 11.6294C13.8707 11.0485 13.812 10.4468 13.9288 9.88862C13.9909 9.59218 14.3659 9.21718 14.6627 9.14762C15.1213 9.04018 15.441 9.3848 15.481 9.88112C15.5053 10.1822 15.4855 10.4867 15.4847 10.7897Z" fill="#4A8780"/>
<path d="M8.99365 10.6817C8.99365 10.4019 8.8954 10.0646 9.01708 9.85591C9.1909 9.55834 9.50721 9.19666 9.7984 9.16178C10.0285 9.13422 10.488 9.52534 10.537 9.78822C10.6502 10.3963 10.6088 11.0413 10.5675 11.6672C10.5371 12.1297 10.2133 12.369 9.75096 12.3472C9.2869 12.3255 9.02758 12.05 8.9944 11.5908C8.97265 11.2892 8.99027 10.9848 8.99027 10.6817C8.9914 10.6817 8.99252 10.6817 8.99365 10.6817Z" fill="#4A8780"/>
<path d="M54.7363 10.74C54.7365 10.437 54.6345 10.0781 54.7622 9.84505C54.9251 9.5473 55.2572 9.19124 55.5472 9.16143C55.7788 9.13762 56.2303 9.53305 56.2785 9.79799C56.3895 10.407 56.3889 11.0632 56.2794 11.6726C56.2322 11.9349 55.8317 12.2546 55.539 12.3231C55.1023 12.4252 54.7929 12.1106 54.7423 11.6479C54.7095 11.3488 54.7361 11.043 54.7363 10.74Z" fill="#4A8780"/>
<path d="M61.2228 10.738C61.2228 11.0412 61.2528 11.348 61.2159 11.6465C61.1595 12.1019 60.8548 12.425 60.4164 12.3228C60.1241 12.2547 59.7277 11.938 59.6761 11.6742C59.5619 11.0903 59.5526 10.453 59.6679 9.87083C59.7254 9.58021 60.1196 9.20989 60.4183 9.14746C60.8773 9.05146 61.1889 9.40227 61.224 9.89858C61.2435 10.177 61.2275 10.4581 61.2275 10.7378C61.2256 10.738 61.2243 10.738 61.2228 10.738Z" fill="#4A8780"/>
</svg>
