<svg width="20" height="19" viewBox="0 0 20 19" fill="none" xmlns="http://www.w3.org/2000/svg">
<path d="M19.8193 7.18496C19.7018 6.83168 19.3485 6.47841 18.8769 6.47841L13.3413 5.77185L10.9859 0.707721C10.8684 0.354443 10.3968 0.118652 10.0435 0.118652C9.57276 0.118652 9.21866 0.354443 9.10117 0.707721L6.74578 5.77185L1.21011 6.36092C0.739343 6.36092 0.503545 6.7142 0.267753 7.06747C0.15027 7.42075 0.267752 7.89234 0.503544 8.12731L4.62628 11.8967L3.44814 17.4324C3.33066 17.7856 3.56562 18.2572 3.9189 18.4922C4.15469 18.6097 4.27219 18.728 4.50798 18.728C4.74377 18.728 4.86125 18.728 4.97874 18.6105L9.92551 15.7836L14.7547 18.6105C15.108 18.8463 15.5796 18.8463 15.9328 18.493C16.2861 18.2572 16.4036 17.7865 16.4036 17.4332L15.2255 11.8975L19.3482 8.12813C19.8198 8.00983 19.9373 7.53824 19.8198 7.18497L19.8193 7.18496Z" fill="#4A8780"/>
</svg>
