<svg width="16" height="14" viewBox="0 0 16 14" xmlns="http://www.w3.org/2000/svg">
<path d="M5.026 13.9553C11.064 13.9553 14.367 8.95232 14.367 4.62132C14.367 4.48132 14.367 4.33932 14.361 4.19932C15.0041 3.73381 15.5591 3.15747 16 2.49732C15.3993 2.76217 14.7628 2.93673 14.111 3.01532C14.7975 2.60496 15.3117 1.95929 15.558 1.19832C14.913 1.58045 14.207 1.84869 13.471 1.99132C12.9762 1.46434 12.3214 1.11524 11.6081 0.998079C10.8948 0.880918 10.1627 1.00224 9.52534 1.34326C8.88796 1.68427 8.38081 2.22595 8.08245 2.88438C7.78409 3.54281 7.71118 4.28125 7.875 4.98532C6.56974 4.91987 5.29282 4.58079 4.12704 3.99006C2.96127 3.39934 1.93268 2.57016 1.108 1.55632C0.68934 2.2794 0.561574 3.13472 0.750646 3.94859C0.939718 4.76245 1.43145 5.47385 2.126 5.93832C1.60554 5.92064 1.09652 5.78088 0.64 5.53032V5.57532C0.640897 6.3328 0.903307 7.06674 1.38287 7.65308C1.86244 8.23942 2.52975 8.64219 3.272 8.79332C2.99026 8.87094 2.69923 8.90963 2.407 8.90832C2.20098 8.90895 1.99538 8.88986 1.793 8.85132C2.00279 9.50338 2.41127 10.0735 2.96125 10.4818C3.51122 10.8901 4.17513 11.1162 4.86 11.1283C3.69656 12.0421 2.2594 12.5377 0.78 12.5353C0.519321 12.5364 0.258823 12.5214 0 12.4903C1.50151 13.4476 3.2453 13.9559 5.026 13.9553V13.9553Z"/>
</svg>
